<?xml version="1.0" encoding="UTF-8" standalone="no"?>
<!-- Created with Inkscape (http://www.inkscape.org/) -->

<svg
   width="210mm"
   height="297mm"
   viewBox="0 0 210 297"
   version="1.1"
   id="svg409"
   xml:space="preserve"
   inkscape:version="1.2.2 (732a01da63, 2022-12-09)"
   sodipodi:docname="cell_phone_icon.svg"
   xmlns:inkscape="http://www.inkscape.org/namespaces/inkscape"
   xmlns:sodipodi="http://sodipodi.sourceforge.net/DTD/sodipodi-0.dtd"
   xmlns="http://www.w3.org/2000/svg"
   xmlns:svg="http://www.w3.org/2000/svg"><sodipodi:namedview
     id="namedview411"
     pagecolor="#ffffff"
     bordercolor="#000000"
     borderopacity="0.25"
     inkscape:showpageshadow="2"
     inkscape:pageopacity="0.0"
     inkscape:pagecheckerboard="0"
     inkscape:deskcolor="#d1d1d1"
     inkscape:document-units="mm"
     showgrid="false"
     inkscape:zoom="0.75455247"
     inkscape:cx="133.85418"
     inkscape:cy="542.04315"
     inkscape:window-width="1920"
     inkscape:window-height="1027"
     inkscape:window-x="-8"
     inkscape:window-y="22"
     inkscape:window-maximized="1"
     inkscape:current-layer="layer1" /><defs
     id="defs406"><inkscape:path-effect
       effect="powerclip"
       id="path-effect1381"
       is_visible="true"
       lpeversion="1"
       inverse="true"
       flatten="false"
       hide_clip="false"
       message="Utilice la regla de relleno parimpar en el diálogo &lt;b&gt;Relleno y borde&lt;/b&gt; si el resultado no está aplanada después de convertir el recorte en trayectos." /><clipPath
       clipPathUnits="userSpaceOnUse"
       id="clipPath1371"><g
         id="g1379"
         style="display:none"><circle
           style="fill:none;stroke:#ff0000;stroke-width:0.264583;stroke-dasharray:none;stroke-opacity:1"
           id="circle1373"
           cx="32.48027"
           cy="132.79111"
           r="2.4545455"
           d="m 34.934816,132.79111 a 2.4545455,2.4545455 0 0 1 -2.454546,2.45454 2.4545455,2.4545455 0 0 1 -2.454545,-2.45454 2.4545455,2.4545455 0 0 1 2.454545,-2.45455 2.4545455,2.4545455 0 0 1 2.454546,2.45455 z" /><rect
           style="fill:none;stroke:#ff0000;stroke-width:0.272692;stroke-dasharray:none;stroke-opacity:1"
           id="rect1375"
           width="7.3007383"
           height="1.5698129"
           x="28.757298"
           y="96.180595"
           ry="0.78490645"
           d="m 29.542204,96.180595 h 5.730925 c 0.434839,0 0.784907,0.350069 0.784907,0.784907 0,0.434838 -0.350068,0.784906 -0.784907,0.784906 h -5.730925 c -0.434838,0 -0.784906,-0.350068 -0.784906,-0.784906 0,-0.434838 0.350068,-0.784907 0.784906,-0.784907 z" /><rect
           style="fill:none;stroke:#ff0000;stroke-width:0.264583;stroke-dasharray:none;stroke-opacity:1"
           id="rect1377"
           width="21.258118"
           height="27.920456"
           x="21.78409"
           y="100.98701"
           ry="0.61363637"
           d="m 22.397726,100.98701 h 20.030845 c 0.339955,0 0.613637,0.27368 0.613637,0.61363 v 26.69319 c 0,0.33995 -0.273682,0.61363 -0.613637,0.61363 H 22.397726 c -0.339954,0 -0.613636,-0.27368 -0.613636,-0.61363 v -26.69319 c 0,-0.33995 0.273682,-0.61363 0.613636,-0.61363 z" /></g><path
         id="lpe_path-effect1381"
         class="powerclip"
         d="M 13.078035,87.979149 H 51.862692 V 142.05265 H 13.078035 Z m 21.856781,44.811961 a 2.4545455,2.4545455 0 0 0 -2.454546,-2.45455 2.4545455,2.4545455 0 0 0 -2.454545,2.45455 2.4545455,2.4545455 0 0 0 2.454545,2.45454 2.4545455,2.4545455 0 0 0 2.454546,-2.45454 z M 29.542204,96.180595 c -0.434838,0 -0.784906,0.350069 -0.784906,0.784907 0,0.434838 0.350068,0.784906 0.784906,0.784906 h 5.730925 c 0.434839,0 0.784907,-0.350068 0.784907,-0.784906 0,-0.434838 -0.350068,-0.784907 -0.784907,-0.784907 z m -7.144478,4.806415 c -0.339954,0 -0.613636,0.27368 -0.613636,0.61363 v 26.69319 c 0,0.33995 0.273682,0.61363 0.613636,0.61363 h 20.030845 c 0.339955,0 0.613637,-0.27368 0.613637,-0.61363 v -26.69319 c 0,-0.33995 -0.273682,-0.61363 -0.613637,-0.61363 z" /></clipPath></defs><g
     inkscape:label="Capa 1"
     inkscape:groupmode="layer"
     id="layer1"><g
       id="g5385"
       inkscape:export-filename="cell_phone_icon.png"
       inkscape:export-xdpi="300"
       inkscape:export-ydpi="300"><path
         style="fill:#0c0c1e;fill-opacity:1;stroke:none;stroke-width:0.262998;stroke-dasharray:none;stroke-opacity:1"
         id="rect646"
         width="28.784657"
         height="44.073505"
         x="18.078035"
         y="92.979149"
         ry="5.9509311"
         clip-path="url(#clipPath1371)"
         inkscape:path-effect="#path-effect1381"
         d="m 24.028966,92.979149 h 16.882795 c 3.296816,0 5.950931,2.654115 5.950931,5.950931 v 32.17164 c 0,3.29682 -2.654115,5.95093 -5.950931,5.95093 H 24.028966 c -3.296815,0 -5.950931,-2.65411 -5.950931,-5.95093 V 98.93008 c 0,-3.296816 2.654116,-5.950931 5.950931,-5.950931 z"
         sodipodi:type="rect"
         transform="matrix(3.1761684,0,0,3.1761684,1.2540415,-209.58735)" /><circle
         style="fill:none;fill-opacity:1;stroke:#0c0c1e;stroke-width:7.9375;stroke-dasharray:none;stroke-opacity:1"
         id="path5069"
         cx="104.38538"
         cy="155.72253"
         r="91.684418" /></g></g></svg>
