<?xml version="1.0" encoding="UTF-8" standalone="no"?>
<!-- Created with Inkscape (http://www.inkscape.org/) -->

<svg
   width="210mm"
   height="297mm"
   viewBox="0 0 210 297"
   version="1.1"
   id="svg5"
   xml:space="preserve"
   inkscape:version="1.2.2 (732a01da63, 2022-12-09)"
   sodipodi:docname="phone_icon.svg"
   xmlns:inkscape="http://www.inkscape.org/namespaces/inkscape"
   xmlns:sodipodi="http://sodipodi.sourceforge.net/DTD/sodipodi-0.dtd"
   xmlns="http://www.w3.org/2000/svg"
   xmlns:svg="http://www.w3.org/2000/svg"><sodipodi:namedview
     id="namedview7"
     pagecolor="#ffffff"
     bordercolor="#000000"
     borderopacity="0.25"
     inkscape:showpageshadow="2"
     inkscape:pageopacity="0.0"
     inkscape:pagecheckerboard="0"
     inkscape:deskcolor="#d1d1d1"
     inkscape:document-units="mm"
     showgrid="false"
     inkscape:zoom="0.64"
     inkscape:cx="365.625"
     inkscape:cy="593.75"
     inkscape:window-width="1920"
     inkscape:window-height="1027"
     inkscape:window-x="-8"
     inkscape:window-y="22"
     inkscape:window-maximized="1"
     inkscape:current-layer="layer1" /><defs
     id="defs2"><inkscape:path-effect
       effect="powerclip"
       id="path-effect998"
       is_visible="true"
       lpeversion="1"
       inverse="true"
       flatten="false"
       hide_clip="false"
       message="Utilice la regla de relleno parimpar en el diálogo &lt;b&gt;Relleno y borde&lt;/b&gt; si el resultado no está aplanada después de convertir el recorte en trayectos." /><clipPath
       clipPathUnits="userSpaceOnUse"
       id="clipPath6099"><rect
         style="fill:#cd032e;fill-opacity:1;stroke:none;stroke-width:7.9375;stroke-dasharray:none;stroke-opacity:1"
         id="rect6101"
         width="214.5974"
         height="70.480515"
         x="-0.06871397"
         y="106.8587" /></clipPath><clipPath
       clipPathUnits="userSpaceOnUse"
       id="clipPath6961"><rect
         style="fill:#cd032e;fill-opacity:1;stroke:none;stroke-width:4.99999;stroke-dasharray:none;stroke-opacity:1"
         id="rect6963"
         width="154.22272"
         height="57.27565"
         x="48.845467"
         y="73.640121" /></clipPath><filter
       id="mask-powermask-path-effect7178_inverse"
       inkscape:label="filtermask-powermask-path-effect7178"
       style="color-interpolation-filters:sRGB"
       height="100"
       width="100"
       x="-50"
       y="-50"><feColorMatrix
         id="mask-powermask-path-effect7178_primitive1"
         values="1"
         type="saturate"
         result="fbSourceGraphic" /><feColorMatrix
         id="mask-powermask-path-effect7178_primitive2"
         values="-1 0 0 0 1 0 -1 0 0 1 0 0 -1 0 1 0 0 0 1 0 "
         in="fbSourceGraphic" /></filter><clipPath
       clipPathUnits="userSpaceOnUse"
       id="clipPath994"><circle
         style="display:none;fill:#fffff8;fill-opacity:1;stroke:none;stroke-width:5.70074;stroke-dasharray:none;stroke-opacity:1"
         id="circle996"
         cx="107.22999"
         cy="149.06415"
         r="16.816128"
         d="m 124.04612,149.06415 a 16.816128,16.816128 0 0 1 -16.81613,16.81613 16.816128,16.816128 0 0 1 -16.81613,-16.81613 16.816128,16.816128 0 0 1 16.81613,-16.81613 16.816128,16.816128 0 0 1 16.81613,16.81613 z" /><path
         id="lpe_path-effect998"
         style="fill:#fffff8;fill-opacity:1;stroke:none;stroke-width:5.70074;stroke-dasharray:none;stroke-opacity:1"
         class="powerclip"
         d="m 57.408348,115.78909 h 99.643282 v 59.44156 H 57.408348 Z m 66.637772,33.27506 a 16.816128,16.816128 0 0 0 -16.81613,-16.81613 16.816128,16.816128 0 0 0 -16.81613,16.81613 16.816128,16.816128 0 0 0 16.81613,16.81613 16.816128,16.816128 0 0 0 16.81613,-16.81613 z" /></clipPath></defs><g
     inkscape:label="Capa 1"
     inkscape:groupmode="layer"
     id="layer1"><g
       id="g1139"
       inkscape:export-filename="phone_icon.png"
       inkscape:export-xdpi="96"
       inkscape:export-ydpi="96"><circle
         style="fill:none;stroke:#cd032e;stroke-width:10.1953;stroke-dasharray:none;stroke-opacity:1"
         id="path111"
         cx="108.17213"
         cy="125.32205"
         r="82.022797" /><circle
         style="fill:#cd032e;fill-opacity:1;stroke:none;stroke-width:9.45613;stroke-dasharray:none;stroke-opacity:1"
         id="path6157"
         cx="76.651665"
         cy="178.19598"
         r="6.3507652" /><circle
         style="fill:#cd032e;fill-opacity:1;stroke:none;stroke-width:9.45613;stroke-dasharray:none;stroke-opacity:1"
         id="circle6159"
         cx="139.69238"
         cy="178.19598"
         r="6.3507652" /><path
         style="fill:#cd032e;fill-opacity:1;stroke:none;stroke-width:10.6042;stroke-dasharray:none;stroke-opacity:1"
         id="path6034"
         clip-path="url(#clipPath994)"
         transform="matrix(1.1913232,0,0,1.1913232,-19.573448,-27.989399)"
         inkscape:path-effect="#path-effect998"
         sodipodi:type="arc"
         sodipodi:cx="107.22999"
         sodipodi:cy="170.23065"
         sodipodi:rx="44.82164"
         sodipodi:ry="49.441559"
         d="m 62.408348,170.23065 a 44.82164,49.441559 0 0 1 44.821642,-49.44156 44.82164,49.441559 0 0 1 44.82164,49.44156 h -44.82164 z"
         sodipodi:start="3.1415927"
         sodipodi:end="0"
         sodipodi:arc-type="slice" /><circle
         style="fill:#cd032e;fill-opacity:1;stroke:none;stroke-width:4.1286;stroke-dasharray:none;stroke-opacity:1"
         id="path6165"
         cx="108.17213"
         cy="149.59419"
         r="12.178626" /><ellipse
         style="fill:#cd032e;fill-opacity:1;stroke:none;stroke-width:10.9993;stroke-dasharray:none;stroke-opacity:1"
         id="path6229"
         cx="111.32797"
         cy="149.01587"
         rx="33.720726"
         ry="50.085201"
         clip-path="url(#clipPath6961)"
         transform="matrix(0.92901351,0,0,0.78498042,4.7469343,24.911896)" /><path
         style="fill:#cd032e;fill-opacity:1;stroke:none;stroke-width:5.35708;stroke-dasharray:none;stroke-opacity:1"
         d="m 104.20108,86.829098 c 0,0 -15.836767,-1.163655 -21.081214,6.732676 -5.244457,7.896316 2.283563,12.610436 -2.032816,17.781356 -4.31637,5.17093 -6.15783,7.51332 -14.333998,8.05849 -8.176167,0.54516 -15.041188,2.44564 -18.400093,-1.32569 -3.358899,-3.7713 -4.066265,-26.031114 6.628957,-35.400694 10.695224,-9.369566 18.488334,-12.330752 31.010388,-14.27549 12.522051,-1.94474 34.030546,-3.933765 46.154896,-0.192008 12.12433,3.741764 26.65001,10.208888 32.51339,19.91712 5.86337,9.708226 7.2189,26.708752 3.32972,29.964532 -3.88918,3.25578 -12.22738,4.69959 -23.61516,0.35383 -11.38776,-4.34578 -9.81145,-4.00697 -11.049,-10.91619 -1.23754,-6.90923 3.34397,-14.761356 -5.28891,-17.737092 -8.63289,-2.975742 -23.83616,-2.96084 -23.83616,-2.96084 z"
         id="path7140" /></g></g></svg>
